<?xml version="1.0" encoding="UTF-8" standalone="no"?>
<!DOCTYPE svg PUBLIC "-//W3C//DTD SVG 1.1//EN" "http://www.w3.org/Graphics/SVG/1.1/DTD/svg11.dtd">
<svg width="100%" height="100%" viewBox="0 0 1024 1024" version="1.1" xmlns="http://www.w3.org/2000/svg" xmlns:xlink="http://www.w3.org/1999/xlink" xml:space="preserve" xmlns:serif="http://www.serif.com/" style="fill-rule:evenodd;clip-rule:evenodd;stroke-linejoin:round;stroke-miterlimit:2;">
    <rect x="0" y="0" width="1024" height="1024" style="fill:url(#_Radial1);"/>
    <g id="Head" transform="matrix(1.35,0,0,1.5,-161.559,-146)">
        <ellipse cx="500" cy="320" rx="200" ry="180"/>
    </g>
    <g id="Head1" serif:id="Head" transform="matrix(1.225,0,0,1.36111,-99.0587,-101.556)">
        <ellipse cx="500" cy="320" rx="200" ry="180" style="fill:rgb(114,48,138);"/>
    </g>
    <g id="Left">
        <g id="Shadow" transform="matrix(1.26335,0,0,1.26335,-123.801,-61.5023)">
            <path d="M295,290L305,250L321.098,210.145L363.361,163.194L394.612,153.198C394.612,153.198 363.978,181.342 365,220C365.684,245.895 375.598,265.224 390,280C419.189,309.947 484.215,341.654 490,380C492.486,396.478 491.501,410.242 500,410C508.499,409.758 523.364,430 523.364,430L524.744,460L524.744,926.657L97.994,926.204L97.994,478.11L130,490L129,473L185.472,487.197C185.472,487.197 186.698,479.939 190,450C193.228,420.733 150,390 150,390C150,390 173.316,383.269 190,390C208.5,397.464 217.187,410 217.187,410C217.187,410 212.376,354.291 156.196,344.507C156.196,344.507 165.908,313.8 210,324.936C254.128,336.081 256.929,354.064 275,391C286.498,414.501 313.131,399.678 299,370C292,355.298 295,290 295,290Z"/>
        </g>
        <g id="Eyebrow" transform="matrix(1.26335,0,0,1.26335,-123.801,-61.5023)">
            <path d="M340,340C340,340 365.345,331.747 380,340C397.023,349.587 413.725,396.352 435,415C449.486,427.697 469.601,424.634 475,417.179C480.018,410.25 480.594,378.003 440,360C440,360 452.143,378.386 450,390C439.998,381.737 432.125,364.031 425,350C412.06,324.517 396.984,320.243 380,320C352.784,319.61 340,340 340,340Z" style="fill:rgb(114,48,138);"/>
        </g>
        <g id="Cheekbone" transform="matrix(1.26335,0,0,1.26335,-123.801,-61.5023)">
            <path d="M330,396.088C330,413.945 328.564,435.938 336,446C343.436,456.062 349.933,458.819 361,464C350.667,467.83 330.205,466.185 323.243,454.114C316.282,442.042 322.412,413.264 330,396.088Z" style="fill:rgb(114,48,138);"/>
        </g>
        <g transform="matrix(1.21895,-0.331999,0.331999,1.21895,-234.44,52.4233)">
            <path d="M171.509,367.822C171.509,367.822 211.308,394.587 203.687,422.569C196.065,450.552 194.134,467.23 201.177,479.545C208.22,491.861 219.417,505.242 241.702,511.311C241.702,511.311 228.441,523.282 204.816,516.847C193.668,513.811 174.632,504.65 170.854,488.274C165.412,464.68 178.64,437.554 183.874,419.208C192.883,387.626 171.509,367.822 171.509,367.822Z" style="fill:rgb(114,48,138);"/>
        </g>
        <g transform="matrix(1.26335,0,0,1.26335,-111.939,-54.3838)">
            <path d="M287.5,426C287.5,426 263.515,423.316 251.569,380C243.685,351.409 222.09,337.838 207.636,332.847C173.458,321.046 160,335.227 160,335.227C160,335.227 209.163,333.875 220,382.19C230.837,430.505 217.633,492.92 266.184,494.314C314.735,495.708 312.942,468.135 312.942,468.135C312.942,468.135 269.296,477.537 260,440C260,440 283.427,444.074 287.5,426Z" style="fill:rgb(114,48,138);"/>
        </g>
        <g transform="matrix(1.26335,0,0,1.26335,-123.801,-61.5023)">
            <path d="M487.665,474.484C534.467,485.726 480,554.818 480,610C480,656.47 491.176,683.684 472.701,724.937C454.226,766.189 420.315,770.871 420.315,770.871C420.315,770.871 443.659,743.987 446.191,710.482C449.062,672.484 430.438,638.103 430,600C429.562,561.897 440.864,463.242 487.665,474.484Z" style="fill:rgb(114,48,138);"/>
        </g>
        <g transform="matrix(1.26335,0,0,1.26335,-123.801,-61.5023)">
            <path d="M435.123,490C435.123,490 405.76,484.67 380,530C366.735,553.342 353.214,596.786 330,620C305,645 264.159,656.914 230,680C207.085,695.486 186.534,713.698 185.456,750C184.814,771.599 194.415,797.583 210,810C243.263,836.501 274.307,830 274.307,830C274.307,830 218.222,812.38 220,770C221.588,732.153 256.845,715.131 286.169,700C317.134,684.023 346.782,666.691 370,640C398.371,607.384 404.375,589.782 410,560C417.105,522.383 435.123,490 435.123,490Z" style="fill:rgb(114,48,138);"/>
        </g>
        <g transform="matrix(1.26335,0,0,1.26335,-123.801,-61.5023)">
            <path d="M361,490C339.674,511.326 326.745,543.255 305,565C283.255,586.745 238.582,590 213.91,590C189.239,590 170.618,597.404 161,612C154.584,621.737 152.411,640.975 154,652C156.381,668.519 170,680 170,680C170,680 151.686,678.117 140,660C131.207,646.369 128.986,629.526 132,610C137.275,575.819 169.801,564.143 193.202,560C218.862,555.457 260.132,559.868 280,540C299.868,520.132 324.661,490 361,490Z" style="fill:rgb(114,48,138);"/>
        </g>
        <g transform="matrix(1.26335,0,0,1.26335,-102.022,-87.7427)">
            <path d="M402.445,830.77C402.445,830.77 360.948,804.945 362.445,770.77C363.943,736.596 382.265,727.58 392.445,710.77C405.524,689.176 402.445,650.77 402.445,650.77C402.445,650.77 389.712,683.504 372.445,700.77C355.178,718.037 332.445,739.88 332.445,770.77C332.445,813.271 402.445,830.77 402.445,830.77Z" style="fill:rgb(114,48,138);"/>
        </g>
        <g transform="matrix(1.26335,0,0,1.26335,-115.434,-61.5023)">
            <path d="M330,820C315.429,812.421 300,803.094 300,775C300,757.624 309.43,740.966 325,725C336.649,713.054 336.371,700 322.772,700C312.216,700 298.377,712.026 285,730C278.762,738.382 267.527,754.56 270,775C273.593,804.699 307.662,820 330,820Z" style="fill:rgb(114,48,138);"/>
        </g>
        <g transform="matrix(1.26335,0,0,1.26335,-136.078,-74.1358)">
            <path d="M339.718,577.196C339.718,577.196 314.815,613.746 263.831,614.367C209.011,615.034 189.718,638.957 189.718,660C189.718,689.514 203.668,700 203.668,700C203.668,700 201.484,671.86 213.344,660C225.203,648.14 234.344,640 262.212,640C287.165,640 307.844,633.383 324.718,615C336.218,602.471 339.718,577.196 339.718,577.196Z" style="fill:rgb(114,48,138);"/>
        </g>
        <g id="Eye" transform="matrix(1.26335,0,0,1.26335,-104.851,-61.5023)">
            <g transform="matrix(1,0,0,1,-15,0)">
                <path d="M369.208,370.049C369.208,370.049 389.282,379.299 396.901,387.263C407.028,397.847 420.484,419.606 433,430C440.878,436.543 455.212,446.943 455.212,446.943C455.212,446.943 448.522,468.121 410,468.135C389.916,468.143 370.494,448.658 365,430C356.663,401.687 369.208,370.049 369.208,370.049Z" style="fill:rgb(238,66,19);"/>
            </g>
            <g transform="matrix(1,0,0,1,-15,0)">
                <path d="M375,390C380.504,385.641 387.425,384.884 399,400C410.575,415.116 422.331,428.61 430,434C437.669,439.39 441.829,445.966 437.837,452.953C433.844,459.94 425.842,462.439 411,462C391.507,461.423 377.46,444.419 371,430C364.54,415.581 368.947,394.793 375,390Z" style="fill:rgb(251,180,48);"/>
            </g>
            <g transform="matrix(0.965296,-0.495129,0.486254,0.947994,-206.506,218.023)">
                <ellipse cx="399" cy="418" rx="9" ry="14" style="fill:white;"/>
            </g>
        </g>
        <g id="Commit-Orb" serif:id="Commit Orb" transform="matrix(1.26335,0,0,1.26335,-117.484,-23.6019)">
            <g transform="matrix(0.875,0,0,0.777778,-173.125,143.333)">
                <ellipse cx="615" cy="735" rx="40" ry="45" style="fill:rgb(238,66,19);"/>
            </g>
            <g transform="matrix(0.986272,0,0,0.990699,-255.365,-51.6432)">
                <ellipse cx="628.999" cy="773.841" rx="25.348" ry="25.235" style="fill:rgb(251,180,48);"/>
            </g>
        </g>
        <g id="Commit-Orb1" serif:id="Commit Orb" transform="matrix(1.26335,0,0,1.26335,-68.6428,-242.653)">
            <g transform="matrix(0.875,0,0,0.777778,-173.125,143.333)">
                <ellipse cx="615" cy="735" rx="40" ry="45" style="fill:rgb(238,66,19);"/>
            </g>
            <g transform="matrix(0.986272,0,0,0.990699,-255.365,-51.6432)">
                <ellipse cx="628.999" cy="773.841" rx="25.348" ry="25.235" style="fill:rgb(251,180,48);"/>
            </g>
        </g>
        <g id="Commit-Orb2" serif:id="Commit Orb" transform="matrix(-1.26335,0,0,1.26335,974.564,-327.408)">
            <g transform="matrix(0.875,0,0,0.777778,-173.125,143.333)">
                <ellipse cx="615" cy="735" rx="40" ry="45" style="fill:rgb(238,66,19);"/>
            </g>
            <g transform="matrix(0.986272,0,0,0.990699,-255.365,-51.6432)">
                <ellipse cx="628.999" cy="773.841" rx="25.348" ry="25.235" style="fill:rgb(251,180,48);"/>
            </g>
        </g>
        <g id="Commit-Orb3" serif:id="Commit Orb" transform="matrix(1.26335,0,0,1.26335,-199.602,-146.887)">
            <g transform="matrix(0.875,0,0,0.777778,-173.125,143.333)">
                <ellipse cx="615" cy="735" rx="40" ry="45" style="fill:rgb(238,66,19);"/>
            </g>
            <g transform="matrix(0.986272,0,0,0.990699,-255.365,-51.6432)">
                <ellipse cx="628.999" cy="773.841" rx="25.348" ry="25.235" style="fill:rgb(251,180,48);"/>
            </g>
        </g>
        <g id="Commit-Orb4" serif:id="Commit Orb" transform="matrix(1.26335,0,0,1.26335,-323.121,-235.321)">
            <g transform="matrix(0.875,0,0,0.777778,-173.125,143.333)">
                <ellipse cx="615" cy="735" rx="40" ry="45" style="fill:rgb(238,66,19);"/>
            </g>
            <g transform="matrix(0.986272,0,0,0.990699,-255.365,-51.6432)">
                <ellipse cx="628.999" cy="773.841" rx="25.348" ry="25.235" style="fill:rgb(251,180,48);"/>
            </g>
        </g>
        <g id="Commit-Orb5" serif:id="Commit Orb" transform="matrix(1.26335,0,0,1.26335,-306.786,-64.1266)">
            <g transform="matrix(0.875,0,0,0.777778,-173.125,143.333)">
                <ellipse cx="615" cy="735" rx="40" ry="45" style="fill:rgb(238,66,19);"/>
            </g>
            <g transform="matrix(0.986272,0,0,0.990699,-255.365,-51.6432)">
                <ellipse cx="628.999" cy="773.841" rx="25.348" ry="25.235" style="fill:rgb(251,180,48);"/>
            </g>
        </g>
    </g>
    <g id="Left1" serif:id="Left" transform="matrix(-1,0,0,1,1026.88,0)">
        <g id="Shadow1" serif:id="Shadow" transform="matrix(1.26335,0,0,1.26335,-123.801,-61.5023)">
            <path d="M295,290L305,250L321.098,210.145L363.361,163.194L394.612,153.198C394.612,153.198 363.978,181.342 365,220C365.684,245.895 375.598,265.224 390,280C419.189,309.947 484.215,341.654 490,380C492.486,396.478 491.501,410.242 500,410C508.499,409.758 523.364,430 523.364,430L502.165,453.954L505.548,539.523L505.548,926.657L97.994,926.204L97.994,478.11L130,490L129,473L185.472,487.197C185.472,487.197 186.698,479.939 190,450C193.228,420.733 150,390 150,390C150,390 173.316,383.269 190,390C208.5,397.464 217.187,410 217.187,410C217.187,410 212.376,354.291 156.196,344.507C156.196,344.507 165.908,313.8 210,324.936C254.128,336.081 256.929,354.064 275,391C286.498,414.501 313.131,399.678 299,370C292,355.298 295,290 295,290Z"/>
        </g>
        <g id="Eyebrow1" serif:id="Eyebrow" transform="matrix(1.26335,0,0,1.26335,-123.801,-61.5023)">
            <path d="M340,340C340,340 365.345,331.747 380,340C397.023,349.587 413.725,396.352 435,415C449.486,427.697 469.601,424.634 475,417.179C480.018,410.25 480.594,378.003 440,360C440,360 452.143,378.386 450,390C439.998,381.737 432.125,364.031 425,350C412.06,324.517 396.984,320.243 380,320C352.784,319.61 340,340 340,340Z" style="fill:rgb(114,48,138);"/>
        </g>
        <g id="Cheekbone1" serif:id="Cheekbone" transform="matrix(1.26335,0,0,1.26335,-123.801,-61.5023)">
            <path d="M330,396.088C330,413.945 328.564,435.938 336,446C343.436,456.062 349.933,458.819 361,464C350.667,467.83 330.205,466.185 323.243,454.114C316.282,442.042 322.412,413.264 330,396.088Z" style="fill:rgb(114,48,138);"/>
        </g>
        <g transform="matrix(1.21895,-0.331999,0.331999,1.21895,-234.44,52.4233)">
            <path d="M171.509,367.822C171.509,367.822 211.308,394.587 203.687,422.569C196.065,450.552 194.134,467.23 201.177,479.545C208.22,491.861 219.417,505.242 241.702,511.311C241.702,511.311 228.441,523.282 204.816,516.847C193.668,513.811 174.632,504.65 170.854,488.274C165.412,464.68 178.64,437.554 183.874,419.208C192.883,387.626 171.509,367.822 171.509,367.822Z" style="fill:rgb(114,48,138);"/>
        </g>
        <g transform="matrix(1.26335,0,0,1.26335,-111.939,-54.3838)">
            <path d="M287.5,426C287.5,426 263.515,423.316 251.569,380C243.685,351.409 222.09,337.838 207.636,332.847C173.458,321.046 160,335.227 160,335.227C160,335.227 209.163,333.875 220,382.19C230.837,430.505 217.633,492.92 266.184,494.314C314.735,495.708 312.942,468.135 312.942,468.135C312.942,468.135 269.296,477.537 260,440C260,440 283.427,444.074 287.5,426Z" style="fill:rgb(114,48,138);"/>
        </g>
        <g transform="matrix(1.26335,0,0,1.26335,-123.801,-61.5023)">
            <path d="M487.665,474.484C534.467,485.726 480,554.818 480,610C480,656.47 491.176,683.684 472.701,724.937C454.226,766.189 420.315,770.871 420.315,770.871C420.315,770.871 443.659,743.987 446.191,710.482C449.062,672.484 430.438,638.103 430,600C429.562,561.897 440.864,463.242 487.665,474.484Z" style="fill:rgb(114,48,138);"/>
        </g>
        <g transform="matrix(1.26335,0,0,1.26335,-123.801,-61.5023)">
            <path d="M435.123,490C435.123,490 405.76,484.67 380,530C366.735,553.342 353.214,596.786 330,620C305,645 264.159,656.914 230,680C207.085,695.486 186.534,713.698 185.456,750C184.814,771.599 194.415,797.583 210,810C243.263,836.501 274.307,830 274.307,830C274.307,830 218.222,812.38 220,770C221.588,732.153 256.845,715.131 286.169,700C317.134,684.023 346.782,666.691 370,640C398.371,607.384 404.375,589.782 410,560C417.105,522.383 435.123,490 435.123,490Z" style="fill:rgb(114,48,138);"/>
        </g>
        <g transform="matrix(1.26335,0,0,1.26335,-123.801,-61.5023)">
            <path d="M361,490C339.674,511.326 326.745,543.255 305,565C283.255,586.745 238.582,590 213.91,590C189.239,590 170.618,597.404 161,612C154.584,621.737 152.411,640.975 154,652C156.381,668.519 170,680 170,680C170,680 151.686,678.117 140,660C131.207,646.369 128.986,629.526 132,610C137.275,575.819 169.801,564.143 193.202,560C218.862,555.457 260.132,559.868 280,540C299.868,520.132 324.661,490 361,490Z" style="fill:rgb(114,48,138);"/>
        </g>
        <g transform="matrix(1.26335,0,0,1.26335,-102.022,-87.7427)">
            <path d="M402.445,830.77C402.445,830.77 360.948,804.945 362.445,770.77C363.943,736.596 382.265,727.58 392.445,710.77C405.524,689.176 402.445,650.77 402.445,650.77C402.445,650.77 389.712,683.504 372.445,700.77C355.178,718.037 332.445,739.88 332.445,770.77C332.445,813.271 402.445,830.77 402.445,830.77Z" style="fill:rgb(114,48,138);"/>
        </g>
        <g transform="matrix(1.26335,0,0,1.26335,-115.434,-61.5023)">
            <path d="M330,820C315.429,812.421 300,803.094 300,775C300,757.624 309.43,740.966 325,725C336.649,713.054 336.371,700 322.772,700C312.216,700 298.377,712.026 285,730C278.762,738.382 267.527,754.56 270,775C273.593,804.699 307.662,820 330,820Z" style="fill:rgb(114,48,138);"/>
        </g>
        <g transform="matrix(1.26335,0,0,1.26335,-136.078,-74.1358)">
            <path d="M339.718,577.196C339.718,577.196 314.815,613.746 263.831,614.367C209.011,615.034 189.718,638.957 189.718,660C189.718,689.514 203.668,700 203.668,700C203.668,700 201.484,671.86 213.344,660C225.203,648.14 234.344,640 262.212,640C287.165,640 307.844,633.383 324.718,615C336.218,602.471 339.718,577.196 339.718,577.196Z" style="fill:rgb(114,48,138);"/>
        </g>
        <g id="Eye1" serif:id="Eye" transform="matrix(1.26335,0,0,1.26335,-104.851,-61.5023)">
            <g transform="matrix(1,0,0,1,-15,0)">
                <path d="M369.208,370.049C369.208,370.049 389.282,379.299 396.901,387.263C407.028,397.847 420.484,419.606 433,430C440.878,436.543 455.212,446.943 455.212,446.943C455.212,446.943 448.522,468.121 410,468.135C389.916,468.143 370.494,448.658 365,430C356.663,401.687 369.208,370.049 369.208,370.049Z" style="fill:rgb(238,66,19);"/>
            </g>
            <g transform="matrix(1,0,0,1,-15,0)">
                <path d="M375,390C380.504,385.641 387.425,384.884 399,400C410.575,415.116 422.331,428.61 430,434C437.669,439.39 441.829,445.966 437.837,452.953C433.844,459.94 425.842,462.439 411,462C391.507,461.423 377.46,444.419 371,430C364.54,415.581 368.947,394.793 375,390Z" style="fill:rgb(251,180,48);"/>
            </g>
            <g transform="matrix(0.965296,-0.495129,0.486254,0.947994,-206.506,218.023)">
                <ellipse cx="399" cy="418" rx="9" ry="14" style="fill:white;"/>
            </g>
        </g>
        <g id="Commit-Orb6" serif:id="Commit Orb" transform="matrix(1.26335,0,0,1.26335,-117.484,-23.6019)">
            <g transform="matrix(0.875,0,0,0.777778,-173.125,143.333)">
                <ellipse cx="615" cy="735" rx="40" ry="45" style="fill:rgb(238,66,19);"/>
            </g>
            <g transform="matrix(0.986272,0,0,0.990699,-255.365,-51.6432)">
                <ellipse cx="628.999" cy="773.841" rx="25.348" ry="25.235" style="fill:rgb(251,180,48);"/>
            </g>
        </g>
        <g id="Commit-Orb7" serif:id="Commit Orb" transform="matrix(1.26335,0,0,1.26335,-68.6428,-242.653)">
            <g transform="matrix(0.875,0,0,0.777778,-173.125,143.333)">
                <ellipse cx="615" cy="735" rx="40" ry="45" style="fill:rgb(238,66,19);"/>
            </g>
            <g transform="matrix(0.986272,0,0,0.990699,-255.365,-51.6432)">
                <ellipse cx="628.999" cy="773.841" rx="25.348" ry="25.235" style="fill:rgb(251,180,48);"/>
            </g>
        </g>
        <g id="Commit-Orb8" serif:id="Commit Orb" transform="matrix(-1.26335,0,0,1.26335,974.564,-327.408)">
            <g transform="matrix(0.870702,0,0,0.773957,-170.653,145.97)">
                <ellipse cx="615" cy="735" rx="40" ry="45" style="fill:rgb(238,66,19);"/>
            </g>
            <g transform="matrix(0.999271,0,0,1.00376,-263.713,-61.9196)">
                <ellipse cx="628.999" cy="773.841" rx="25.348" ry="25.235" style="fill:rgb(251,180,48);"/>
            </g>
        </g>
        <g id="Commit-Orb9" serif:id="Commit Orb" transform="matrix(1.26335,0,0,1.26335,-199.602,-146.887)">
            <g transform="matrix(0.875,0,0,0.777778,-173.125,143.333)">
                <ellipse cx="615" cy="735" rx="40" ry="45" style="fill:rgb(238,66,19);"/>
            </g>
            <g transform="matrix(0.986272,0,0,0.990699,-255.365,-51.6432)">
                <ellipse cx="628.999" cy="773.841" rx="25.348" ry="25.235" style="fill:rgb(251,180,48);"/>
            </g>
        </g>
        <g id="Commit-Orb10" serif:id="Commit Orb" transform="matrix(1.26335,0,0,1.26335,-323.121,-235.321)">
            <g transform="matrix(0.875,0,0,0.777778,-173.125,143.333)">
                <ellipse cx="615" cy="735" rx="40" ry="45" style="fill:rgb(238,66,19);"/>
            </g>
            <g transform="matrix(0.986272,0,0,0.990699,-255.365,-51.6432)">
                <ellipse cx="628.999" cy="773.841" rx="25.348" ry="25.235" style="fill:rgb(251,180,48);"/>
            </g>
        </g>
        <g id="Commit-Orb11" serif:id="Commit Orb" transform="matrix(1.26335,0,0,1.26335,-306.786,-64.1266)">
            <g transform="matrix(0.875,0,0,0.777778,-173.125,143.333)">
                <ellipse cx="615" cy="735" rx="40" ry="45" style="fill:rgb(238,66,19);"/>
            </g>
            <g transform="matrix(0.986272,0,0,0.990699,-255.365,-51.6432)">
                <ellipse cx="628.999" cy="773.841" rx="25.348" ry="25.235" style="fill:rgb(251,180,48);"/>
            </g>
        </g>
    </g>
    <defs>
        <radialGradient id="_Radial1" cx="0" cy="0" r="1" gradientUnits="userSpaceOnUse" gradientTransform="matrix(4.92886e-14,804.944,-804.944,4.92886e-14,516.274,164.595)"><stop offset="0" style="stop-color:rgb(35,15,70);stop-opacity:1"/><stop offset="0.56" style="stop-color:rgb(48,26,87);stop-opacity:1"/><stop offset="1" style="stop-color:rgb(99,67,154);stop-opacity:1"/></radialGradient>
    </defs>
</svg>
